<?xml version="1.0" encoding="UTF-8"?>
<svg version="1.1" xmlns="http://www.w3.org/2000/svg" width="2000" height="2000">
<path d="M0 0 C660 0 1320 0 2000 0 C2000 660 2000 1320 2000 2000 C1340 2000 680 2000 0 2000 C0 1340 0 680 0 0 Z " fill="#000000" transform="translate(0,0)"/>
<path d="M0 0 C1.21922324 -0.00384491 1.21922324 -0.00384491 2.46307725 -0.0077675 C5.18401723 -0.01270508 7.90440114 0.00378702 10.62528992 0.02018738 C12.5767414 0.02103366 14.52819385 0.02055849 16.47964478 0.01885986 C21.77678401 0.01799852 27.07371978 0.03564699 32.3708117 0.05658174 C37.90681444 0.0753252 43.44282175 0.07709714 48.97885132 0.08065796 C59.46185615 0.08998526 69.94476721 0.11460838 80.42773074 0.14470643 C92.36231017 0.17822906 104.29689406 0.19473108 116.23150885 0.20979273 C140.78168514 0.24115729 165.33177817 0.29393117 189.88188171 0.36076355 C189.88188171 1.02076355 189.88188171 1.68076355 189.88188171 2.36076355 C188.79391296 2.66369324 187.70594421 2.96662292 186.58500671 3.2787323 C172.01446492 7.39989537 154.91206894 12.33057632 143.88188171 23.36076355 C144.57153015 23.02302917 145.26117859 22.6852948 145.97172546 22.33732605 C160.14907267 15.60843423 174.11680511 15.15488051 189.56938171 15.17326355 C190.34810638 15.17320312 191.12683105 15.1731427 191.92915344 15.17308044 C203.7963407 15.1861683 215.45801485 15.74339942 227.25541687 17.08293152 C231.07156117 17.48660992 234.89472258 17.77139026 238.7207489 18.06388855 C248.10404951 18.78823469 257.46916111 19.66524363 266.81938171 20.73576355 C267.79568542 20.83751892 268.77198914 20.93927429 269.77787781 21.04411316 C270.70809753 21.15634216 271.63831726 21.26857117 272.59672546 21.38420105 C273.40230896 21.47620789 274.20789246 21.56821472 275.03788757 21.66300964 C282.9210328 23.59708373 288.3263021 27.08290422 293.82328796 32.95451355 C294.43526535 33.58305237 295.04724274 34.21159119 295.67776489 34.85917664 C297.61260205 36.84794918 299.52999416 38.852313 301.44438171 40.86076355 C303.36319328 42.86827695 305.285743 44.8713683 307.22171021 46.86235046 C308.41963072 48.09461574 309.60807304 49.33619738 310.78485107 50.58866882 C316.87054697 56.85596502 322.62800919 59.76920753 331.46781921 60.11857605 C332.16262894 60.15174927 332.85743866 60.18492249 333.57330322 60.21910095 C335.0443866 60.28777881 336.51585144 60.34868226 337.98756409 60.40220642 C341.05726515 60.51523397 344.1243526 60.67058764 347.19223022 60.82453918 C348.70346428 60.90034924 350.21478743 60.97440489 351.72619629 61.04664612 C366.44382507 61.75686584 380.55747911 63.93992127 394.88188171 67.36076355 C395.62405945 67.53446472 396.36623718 67.70816589 397.13090515 67.88713074 C409.99092571 70.95877362 421.91448751 75.78043289 433.88188171 81.36076355 C434.51900085 81.65660339 435.15612 81.95244324 435.81254578 82.25724792 C446.54102935 87.34142889 446.54102935 87.34142889 448.88188171 93.36076355 C450.3305071 104.10862929 447.20004107 112.78611871 440.88188171 121.36076355 C441.37688171 121.73201355 441.87188171 122.10326355 442.38188171 122.48576355 C444.53540023 125.1776617 444.13807489 126.9690221 443.88188171 130.36076355 C442.87211609 133.13395691 442.87211609 133.13395691 441.47563171 135.9506073 C440.97934265 136.98250183 440.48305359 138.01439636 439.97172546 139.07756042 C438.9133798 141.2215555 437.85348796 143.36478804 436.79203796 145.50724792 C433.13781552 153.06264991 433.13781552 153.06264991 432.88188171 161.36076355 C432.95406921 162.23603699 433.02625671 163.11131042 433.10063171 164.0131073 C433.19344421 164.76720886 433.28625671 165.52131042 433.38188171 166.29826355 C433.47469421 167.07041199 433.56750671 167.84256042 433.66313171 168.6381073 C433.73531921 169.20658386 433.80750671 169.77506042 433.88188171 170.36076355 C427.41067809 172.51020928 421.02201947 174.38068703 414.34062195 175.71769714 C407.29419936 177.13107181 400.96920864 178.94444444 394.44438171 181.98576355 C381.48714999 188.01260299 368.84492954 188.90107997 354.96391296 185.5052948 C352.19941684 184.47868217 350.1333523 183.30904531 347.64360046 181.7709198 C342.61259089 178.91316413 338.5716278 178.74128629 332.88188171 178.98576355 C331.44449646 179.02008484 331.44449646 179.02008484 329.97807312 179.05509949 C327.83015322 179.10956232 325.6824998 179.17532282 323.53520203 179.25041199 C320.17696145 179.35185042 316.82295675 179.40502024 313.46360779 179.43836975 C310.46995822 179.47030364 307.47677449 179.52062879 304.48344421 179.57432556 C303.00598597 179.59850436 301.52842627 179.61715245 300.05082703 179.63011169 C297.95980038 179.65154873 295.87075536 179.69844001 293.78031921 179.75138855 C292.57037292 179.77233582 291.36042664 179.79328308 290.11381531 179.81486511 C286.7946498 180.08002834 286.7946498 180.08002834 284.6399231 182.36650085 C281.05915864 184.95565163 278.91127843 184.84477988 274.52128601 184.81486511 C273.79879166 184.81544922 273.0762973 184.81603333 272.33190918 184.81663513 C269.95614199 184.81385989 267.58164704 184.7827968 265.20610046 184.75138855 C263.55415533 184.74392411 261.90220131 184.73823214 260.25024414 184.73423767 C255.91156885 184.71899717 251.57343292 184.67972946 247.23497009 184.63542175 C242.80419714 184.59443459 238.37333666 184.57621933 233.94242859 184.55607605 C225.25533268 184.51323326 216.56867437 184.44500166 207.88188171 184.36076355 C207.59289001 185.29646179 207.30389832 186.23216003 207.00614929 187.19621277 C205.73374382 190.77773713 204.15022056 192.7184103 201.56938171 195.48576355 C200.8101239 196.31334167 200.05086609 197.1409198 199.26860046 197.99357605 C194.35966495 202.86234024 191.71733011 204.85318415 184.61235046 204.97013855 C183.93134781 204.9866748 183.25034515 205.00321106 182.54870605 205.02024841 C180.388838 205.06855658 178.22967296 205.09005865 176.06938171 205.11076355 C174.59864355 205.13893799 173.12793788 205.16886749 171.65727234 205.2006073 C168.06562758 205.27430751 164.474116 205.3239884 160.88188171 205.36076355 C170.54100174 209.47922034 179.50178172 212.5374486 189.88188171 214.36076355 C189.88188171 215.02076355 189.88188171 215.68076355 189.88188171 216.36076355 C156.00386797 216.47522851 122.12590238 216.56332232 88.24773818 216.6160902 C84.24736774 216.62234367 80.24699768 216.62881529 76.24662781 216.63542175 C75.05203432 216.63738908 75.05203432 216.63738908 73.83330762 216.63939615 C60.94116588 216.66114783 48.04913572 216.70056802 35.15706015 216.74652753 C21.92684329 216.79329884 8.69668484 216.82106036 -4.5336113 216.83120602 C-12.69630144 216.83806381 -20.85867621 216.85971675 -29.02126926 216.90034588 C-35.28226322 216.92992081 -41.54301716 216.93303597 -47.80407143 216.92630196 C-50.3711472 216.92767807 -52.93823485 216.93763132 -55.50523949 216.95679092 C-59.01050871 216.98167135 -62.51442912 216.97568528 -66.01972961 216.96203613 C-67.03531008 216.97660034 -68.05089054 216.99116455 -69.09724617 217.00617009 C-75.62816501 216.93744153 -80.10187549 215.6671418 -85.11811829 211.36076355 C-88.73414506 206.50172757 -88.95681746 201.21259644 -88.11811829 195.36076355 C-85.75208049 190.2501219 -82.31644088 187.39609303 -77.11811829 185.36076355 C-73.60798177 184.8167806 -70.15844997 184.84682754 -66.61225891 184.89421082 C-65.06214363 184.8907515 -65.06214363 184.8907515 -63.48071289 184.88722229 C-61.24580218 184.88459982 -59.01086637 184.89100204 -56.77600098 184.90547371 C-53.23632782 184.9274055 -49.69750708 184.9236283 -46.15779114 184.91299438 C-37.36908457 184.89135232 -28.5805689 184.90869814 -19.79188538 184.93449402 C-12.3587927 184.9559003 -4.92624752 184.95783857 2.50683594 184.93157768 C5.98974904 184.92723019 9.47170825 184.95185518 12.95451355 184.97711182 C15.09502079 184.97184024 17.23552511 184.96511723 19.37602234 184.95671082 C20.34038712 184.97162064 21.30475189 184.98653046 22.29833984 185.00189209 C28.77973076 184.93341456 32.00683795 183.68110345 36.88188171 179.36076355 C39.76039046 174.98042415 39.40894868 169.43064581 38.88188171 164.36076355 C37.06394176 159.714917 34.145352 157.80811647 29.88188171 155.36076355 C26.63583783 154.79200251 26.63583783 154.79200251 23.17729187 154.91007996 C21.20461838 154.90955124 21.20461838 154.90955124 19.1920929 154.90901184 C18.49638813 154.91793079 17.80068336 154.92684975 17.08389664 154.93603897 C14.88806452 154.96272565 12.69366306 154.96259052 10.49769592 154.95533752 C4.2586634 154.93973896 -1.97986213 154.97394324 -8.21870422 155.0209198 C-12.04492404 155.04788628 -15.87028498 155.04556538 -19.69653702 155.02645493 C-21.14691011 155.02537864 -22.59734156 155.03571169 -24.04754257 155.05807877 C-31.67023698 155.17526887 -37.77053852 155.20228901 -43.75694275 149.93067932 C-47.15902961 146.00687253 -47.57799536 141.32580259 -47.43452454 136.31388855 C-46.69851872 131.7706428 -43.81809579 128.9774104 -40.49311829 126.04826355 C-36.37044445 123.1189953 -33.19632855 123.20972011 -28.27534485 123.20304871 C-27.06041351 123.19542763 -27.06041351 123.19542763 -25.82093811 123.18765259 C-24.05850055 123.17693776 -22.29604928 123.16832196 -20.53359222 123.16153336 C-17.74250147 123.14975752 -14.95156638 123.13030698 -12.16053772 123.1084137 C-4.22359918 123.04676127 3.71332475 122.99278759 11.6504364 122.95939636 C16.50284068 122.93843109 21.35496346 122.9031095 26.20720673 122.85863876 C28.05549552 122.84448957 29.90383415 122.83575877 31.75217438 122.83258438 C34.34225827 122.82766637 36.93159791 122.8044847 39.52153015 122.77726746 C40.28227844 122.78027359 41.04302673 122.78327972 41.826828 122.78637695 C46.60475843 122.71195194 49.74793265 121.70211309 53.88188171 119.36076355 C54.54188171 119.36076355 55.20188171 119.36076355 55.88188171 119.36076355 C59.28290397 111.13448113 59.28290397 111.13448113 58.19828796 102.45451355 C55.88101326 97.91611662 53.73956812 96.26847983 48.88188171 94.36076355 C45.04997812 93.92673417 41.24091996 93.96433263 37.38798523 93.99186707 C36.23767822 93.98810059 35.08737122 93.98433411 33.90220642 93.98045349 C31.40919369 93.97402689 28.91615646 93.97434552 26.42314339 93.9806385 C22.47619377 93.98974966 18.52971909 93.97952395 14.58279419 93.96401978 C4.78077429 93.92790021 -5.02123803 93.92159354 -14.82331848 93.92411804 C-23.10833978 93.92598051 -31.39300265 93.91210031 -39.67794991 93.87563896 C-43.56397137 93.86480981 -47.44950443 93.87694688 -51.33551025 93.88946533 C-53.72195418 93.88056088 -56.10839412 93.87048648 -58.49482727 93.85905457 C-60.1120443 93.87366982 -60.1120443 93.87366982 -61.76193237 93.88858032 C-68.10743271 93.82794295 -71.95320225 93.13092704 -77.11811829 89.36076355 C-81.71931515 84.27523018 -82.59031262 80.95494566 -82.52827454 74.1927948 C-81.87647341 69.69226324 -79.68536246 67.06188671 -76.11811829 64.36076355 C-70.65309862 60.89234334 -65.95594958 60.93635268 -59.69404602 60.97599792 C-58.65756927 60.97062515 -57.62109253 60.96525238 -56.5532074 60.9597168 C-54.30902404 60.94995357 -52.06480299 60.94699023 -49.82060051 60.95007324 C-46.26904166 60.95455477 -42.7179801 60.94054179 -39.16647339 60.92167664 C-30.34862233 60.87867151 -21.53078239 60.86763838 -12.71284485 60.85545349 C-5.25590533 60.84393194 2.2008072 60.82039244 9.6576519 60.78076172 C13.15701656 60.76717381 16.65607577 60.7713652 20.15545654 60.77616882 C22.29937634 60.76682978 24.44329274 60.75666136 26.58720398 60.74552917 C27.56033035 60.7516774 28.53345673 60.75782562 29.53607178 60.76416016 C34.45923401 60.71921602 37.90623332 60.61258694 41.88188171 57.36076355 C44.56222585 53.82793174 45.76972777 50.1598604 46.38188171 45.79826355 C45.7857697 41.69999347 44.72569512 38.43269034 41.88188171 35.36076355 C36.75868126 32.16638486 32.6341615 31.9330416 26.79203796 31.95451355 C25.92928757 31.94367737 25.06653717 31.93284119 24.17764282 31.92167664 C21.43314561 31.88755479 18.68906267 31.87185317 15.94438171 31.86076355 C12.33070585 31.84613457 8.71794492 31.81234782 5.10453796 31.76701355 C3.87453819 31.77154541 3.87453819 31.77154541 2.61968994 31.77616882 C-4.04035474 31.68993853 -8.72034791 30.38554743 -13.93061829 25.98576355 C-16.98168823 22.32447962 -17.93444997 19.75139512 -18.55561829 15.04826355 C-17.99190127 10.29693441 -16.27580194 6.94726844 -13.11811829 3.36076355 C-8.88282083 0.14148975 -5.13892338 -0.05941257 0 0 Z " fill="#F9721E" transform="translate(358.1181182861328,857.6392364501953)"/>
<path d="M0 0 C12.87 0 25.74 0 39 0 C40.45812532 11.97197627 41.88740174 23.94564705 43.2421875 35.9296875 C43.35059464 36.88814575 43.45900177 37.846604 43.57069397 38.83410645 C44.11551694 43.65574076 44.65805701 48.47762134 45.19799805 53.29980469 C45.40387173 55.12958683 45.61000312 56.95934 45.81640625 58.7890625 C45.91577988 59.67291626 46.0151535 60.55677002 46.11753845 61.46740723 C46.84570924 67.86079541 47.69703757 74.22685407 48.64819336 80.59130859 C49.07300335 84.70733713 49 88.86210748 49 93 C41.08 93 33.16 93 25 93 C24.505 84.09 24.505 84.09 24 75 C7.665 75.495 7.665 75.495 -9 76 C-11.26126142 81.21945978 -11.26126142 81.21945978 -13.51733398 86.44116211 C-15.88888889 91.88888889 -15.88888889 91.88888889 -17 93 C-18.92667507 93.08748207 -20.85651861 93.10697334 -22.78515625 93.09765625 C-24.53989258 93.09282227 -24.53989258 93.09282227 -26.33007812 93.08789062 C-28.17762695 93.07532227 -28.17762695 93.07532227 -30.0625 93.0625 C-31.91584961 93.05573242 -31.91584961 93.05573242 -33.80664062 93.04882812 C-36.87114117 93.03699608 -39.93554721 93.02051173 -43 93 C-42.36902793 88.53486347 -40.63580845 84.83042677 -38.640625 80.83984375 C-38.30002548 80.14616196 -37.95942596 79.45248016 -37.60850525 78.73777771 C-36.87563167 77.24602025 -36.14027347 75.75548135 -35.40267944 74.26605225 C-33.4443522 70.30999375 -31.50559599 66.34437201 -29.56640625 62.37890625 C-29.17564407 61.5806543 -28.7848819 60.78240234 -28.38227844 59.95996094 C-24.88889513 52.80774543 -21.51618325 45.60528162 -18.1875 38.375 C-12.26259486 25.51366594 -6.15436005 12.7536136 0 0 Z " fill="#FB731E" transform="translate(857,922)"/>
<path d="M0 0 C1.05444305 -0.02517197 2.10888611 -0.05034393 3.19528198 -0.07627869 C5.42589938 -0.11839282 7.65676521 -0.14875897 9.88769531 -0.16821289 C13.2761168 -0.21445385 16.65335193 -0.35130179 20.0390625 -0.49023438 C36.79810679 -0.85403676 36.79810679 -0.85403676 42.17553711 3.65429688 C45.68228046 7.32345983 48.66330014 11.23511489 49.66577148 16.30688477 C49.4921875 18.47265625 49.4921875 18.47265625 48.1796875 22.84765625 C47.5196875 26.47765625 46.8596875 30.10765625 46.1796875 33.84765625 C38.5896875 33.84765625 30.9996875 33.84765625 23.1796875 33.84765625 C23.24479167 30.78776042 23.30989583 27.72786458 23.375 24.66796875 C23.48029284 21.71055115 23.48029284 21.71055115 21.1796875 19.84765625 C17.72025417 19.3967395 14.22764316 19.52359203 10.7421875 19.53515625 C9.77474609 19.51904297 8.80730469 19.50292969 7.81054688 19.48632812 C6.88177734 19.48568359 5.95300781 19.48503906 4.99609375 19.484375 C3.71907593 19.47990356 3.71907593 19.47990356 2.41625977 19.4753418 C-0.28853442 19.92559953 -1.03077426 20.85088401 -2.8203125 22.84765625 C-3.4803125 22.84765625 -4.1403125 22.84765625 -4.8203125 22.84765625 C-4.92214844 23.97945312 -5.02398438 25.11125 -5.12890625 26.27734375 C-5.63736895 30.85978535 -6.40823263 35.38331261 -7.23046875 39.91796875 C-7.36262787 40.64771912 -7.49478699 41.37746948 -7.63095093 42.1293335 C-8.18661586 45.18294738 -8.74627204 48.23578849 -9.31176758 51.28759766 C-9.72755434 53.538441 -10.13570089 55.79057067 -10.54296875 58.04296875 C-10.67107437 58.72231476 -10.79917999 59.40166077 -10.9311676 60.10159302 C-11.70267793 64.39898694 -12.10516952 68.48482818 -11.8203125 72.84765625 C-8.84105534 75.82691341 -6.09429097 75.14008009 -2.01953125 75.16992188 C-1.00503906 75.16669922 0.00945312 75.16347656 1.0546875 75.16015625 C2.06144531 75.17626953 3.06820313 75.19238281 4.10546875 75.20898438 C5.07613281 75.20962891 6.04679687 75.21027344 7.046875 75.2109375 C7.93487793 75.21391846 8.82288086 75.21689941 9.73779297 75.2199707 C12.67415164 74.9690614 12.67415164 74.9690614 16.1796875 71.84765625 C17.1696875 68.21765625 18.1596875 64.58765625 19.1796875 60.84765625 C26.7696875 60.84765625 34.3596875 60.84765625 42.1796875 60.84765625 C40.3046875 79.99944196 40.3046875 79.99944196 34.3671875 85.22265625 C32.66228398 86.46498905 30.93175302 87.67277191 29.1796875 88.84765625 C28.36580566 89.69223389 27.55192383 90.53681152 26.71337891 91.40698242 C22.34356375 95.05168215 17.43503565 94.65811993 11.97265625 94.6875 C10.89268875 94.704142 9.81272125 94.720784 8.70002747 94.7379303 C6.4198365 94.76318905 4.13946158 94.77497461 1.85913086 94.77416992 C-1.61331907 94.78509492 -5.07778646 94.87586592 -8.54882812 94.97070312 C-25.72459032 95.18656767 -25.72459032 95.18656767 -30.32958984 91.66064453 C-32.61364485 89.1480469 -34.25329413 86.84734292 -35.8203125 83.84765625 C-36.4803125 82.85765625 -37.1403125 81.86765625 -37.8203125 80.84765625 C-38.5703828 70.06422851 -35.9469254 59.08960319 -34.20703125 48.49536133 C-33.7775214 45.86292875 -33.38113474 43.23133088 -32.99804688 40.59106445 C-29.29255328 15.12852966 -29.29255328 15.12852966 -21.7734375 8.8046875 C-19.83325686 7.4214913 -17.8505833 6.09486638 -15.8203125 4.84765625 C-15.09569824 4.12352539 -14.37108398 3.39939453 -13.62451172 2.65332031 C-9.29851901 -0.13224839 -5.05158601 0.10056498 0 0 Z " fill="#FB731E" transform="translate(1167.8203125,921.15234375)"/>
<path d="M0 0 C0.90239914 -0.01901367 1.80479828 -0.03802734 2.73454285 -0.05761719 C4.63805356 -0.08721742 6.54181853 -0.10322328 8.44555664 -0.10644531 C11.3398285 -0.12490027 14.22307585 -0.2285194 17.11523438 -0.3359375 C31.39387727 -0.59093813 31.39387727 -0.59093813 35.80224609 3.21875 C38.15424424 6.02024949 39.91921145 8.60346284 41.54296875 11.875 C41.95683838 12.65262695 42.37070801 13.43025391 42.79711914 14.23144531 C43.8363306 17.91477811 43.33584293 21.20470617 42.77734375 24.921875 C42.66505432 25.69251282 42.55276489 26.46315063 42.43707275 27.25714111 C42.19238394 28.88550503 41.93974144 30.51269106 41.6796875 32.13867188 C41.29702755 34.59890477 40.97427615 37.06244325 40.65234375 39.53125 C39.32091585 48.55262437 37.8680782 54.35173581 30.18457031 60.05957031 C29.3128418 60.65866211 28.44111328 61.25775391 27.54296875 61.875 C26.64505615 62.75623535 25.74714355 63.6374707 24.82202148 64.54541016 C20.92016944 67.81557821 16.86031704 67.73606978 11.9375 67.8203125 C11.01764816 67.84406952 10.09779633 67.86782654 9.15007019 67.89230347 C7.20793472 67.93065125 5.26547935 67.95503476 3.32299805 67.96630859 C0.37695072 67.99975611 -2.55502629 68.12901025 -5.49804688 68.26171875 C-19.94789822 68.59305811 -19.94789822 68.59305811 -25.27416992 64.18041992 C-29.36162028 59.98692347 -32.6880195 55.83820182 -32.73925781 49.74267578 C-32.48365601 46.9212808 -32.21413959 44.3571742 -31.51171875 41.62890625 C-30.69447368 38.15967878 -30.17013276 34.75770515 -29.77734375 31.21484375 C-27.76722731 14.74592257 -27.76722731 14.74592257 -21.08203125 9.3125 C-19.22483946 8.13802238 -17.34924239 6.99218219 -15.45703125 5.875 C-14.60326904 5.03332275 -13.74950684 4.19164551 -12.86987305 3.32446289 C-8.90768983 -0.00180267 -5.00995541 0.05071857 0 0 Z " fill="#FB731E" transform="translate(1080.45703125,948.125)"/>
<path d="M0 0 C1.80615257 -0.00110385 3.61230496 -0.00253682 5.41845703 -0.00427246 C10.18328796 -0.00713849 14.94808359 -0.0029352 19.7129097 0.00383759 C22.67423756 0.00784211 25.63556358 0.01033627 28.59689331 0.01251221 C89.53771891 0.06405466 89.53771891 0.06405466 119.58984375 1.1328125 C120.34551636 1.1596814 121.10118896 1.18655029 121.87976074 1.2142334 C137.87092601 1.80748408 153.67854423 3.36244645 169.52734375 5.5078125 C170.26975311 5.6068689 171.01216248 5.70592529 171.77706909 5.8079834 C203.09878089 10.05348432 203.09878089 10.05348432 213.58984375 16.1328125 C214.375 18.2578125 214.375 18.2578125 214.58984375 20.1328125 C210.94412457 22.56329195 209.19404534 22.39045237 204.8515625 22.3984375 C204.1831282 22.40157455 203.51469391 22.40471161 202.82600403 22.40794373 C200.64285343 22.41299947 198.4604238 22.40049564 196.27734375 22.3828125 C195.15730957 22.37467026 195.15730957 22.37467026 194.01464844 22.36636353 C189.53495731 22.3281079 185.0565166 22.25827188 180.57757568 22.16876221 C178.81310807 22.13685041 177.04838504 22.11983611 175.28369141 22.10498047 C159.8562217 21.89928087 147.72085689 17.08492841 133.98974609 10.22436523 C131.3906151 8.95487833 131.3906151 8.95487833 127.58984375 8.1328125 C133.85984375 11.1028125 140.12984375 14.0728125 146.58984375 17.1328125 C146.25984375 17.7928125 145.92984375 18.4528125 145.58984375 19.1328125 C135.16552732 19.32010523 124.74162609 19.46128049 114.31595516 19.54730988 C109.47214794 19.58864924 104.62951089 19.64449555 99.78637695 19.73632812 C58.94586831 20.49116651 58.94586831 20.49116651 41.13331604 11.85925293 C39.72335755 11.06183829 39.72335755 11.06183829 38.58984375 11.1328125 C42.54984375 13.1128125 46.50984375 15.0928125 50.58984375 17.1328125 C50.58984375 18.1228125 50.58984375 19.1128125 50.58984375 20.1328125 C42.30510513 20.31913713 34.02125843 20.46079776 25.73493481 20.54730988 C21.88608882 20.58885725 18.03868812 20.64509523 14.19067383 20.73632812 C10.46874876 20.82400746 6.74820286 20.87123996 3.02532387 20.89183044 C1.61353172 20.90648009 0.20180518 20.93508654 -1.20939064 20.97865295 C-10.37865231 21.25016418 -15.92917957 20.20128075 -22.96781921 14.1361084 C-28.28171425 9.77745356 -35.07999534 7.65126361 -41.41015625 5.1328125 C-40.75015625 3.8128125 -40.09015625 2.4928125 -39.41015625 1.1328125 C-26.26136429 0.37050542 -13.16971418 -0.01709329 0 0 Z " fill="#050200" transform="translate(555.41015625,920.8671875)"/>
<path d="M0 0 C6.63309295 -0.33190649 13.26402375 -0.55816345 19.90356445 -0.71411133 C22.15730764 -0.77915885 24.4105091 -0.86763653 26.66235352 -0.98071289 C46.12647797 -1.93302006 46.12647797 -1.93302006 52.03271484 2.56494141 C55.89019324 6.28980172 58.49873716 10.3652788 59.51464844 15.70507812 C59.34967693 18.61620793 58.72948642 21.17599313 58 24 C57.66296774 26.01240633 57.32702019 28.02505967 57.01016235 30.04074097 C56.53609407 33.00663354 56.00323501 35.96083868 55.47094727 38.91674805 C55.06153307 41.19287562 54.66013612 43.47031296 54.25976562 45.74804688 C53.99786572 47.22143777 53.7355116 48.69474801 53.47265625 50.16796875 C53.3548732 50.83587936 53.23709015 51.50378998 53.11573792 52.19194031 C52.26755533 56.87507155 51.16036382 61.35854471 50 66 C42.41 66 34.82 66 27 66 C26.505 62.535 26.505 62.535 26 59 C25.56099365 59.49226074 25.1219873 59.98452148 24.66967773 60.49169922 C19.79352028 65.40437061 16.11882652 66.94066263 9.21704102 67.17407227 C7.65554321 67.14978149 7.65554321 67.14978149 6.0625 67.125 C4.99378662 67.12105225 3.92507324 67.11710449 2.82397461 67.11303711 C-5.85474423 66.72843107 -5.85474423 66.72843107 -9.53125 63.55859375 C-11.74978323 60.79623175 -13.44872402 58.17689425 -15 55 C-15.33 54.67 -15.66 54.34 -16 54 C-16.12641208 52.27432807 -16.17582486 50.54275643 -16.1875 48.8125 C-16.20167969 47.87019531 -16.21585938 46.92789063 -16.23046875 45.95703125 C-15.85417367 41.12897409 -15.05913953 38.05402291 -11.57421875 34.5859375 C-10.62160156 33.85632813 -9.66898438 33.12671875 -8.6875 32.375 C-7.74261719 31.64023437 -6.79773437 30.90546875 -5.82421875 30.1484375 C-4.42623047 29.08496094 -4.42623047 29.08496094 -3 28 C-2.27119629 27.30374512 -1.54239258 26.60749023 -0.79150391 25.89013672 C2.84355786 23.42882413 5.12624457 23.53986047 9.48828125 23.609375 C10.19147995 23.61503479 10.89467865 23.62069458 11.6191864 23.62652588 C13.85100248 23.64880231 16.08117461 23.69897627 18.3125 23.75 C19.83135691 23.77007657 21.35023916 23.78832532 22.86914062 23.8046875 C26.57995545 23.84863643 30.2898171 23.91760079 34 24 C33.1395861 19.66770285 33.1395861 19.66770285 31 16 C28.55391002 15.84019563 26.13268942 15.74070553 23.68359375 15.68359375 C22.95253922 15.66281265 22.22148468 15.64203156 21.46827698 15.62062073 C19.12478344 15.55504976 16.78117461 15.49620568 14.4375 15.4375 C12.85220145 15.39432192 11.26691471 15.35070787 9.68164062 15.30664062 C5.78787963 15.1993608 1.89400228 15.0981151 -2 15 C-1.85930804 12.87465341 -1.71229079 10.74972471 -1.5625 8.625 C-1.48128906 7.44164062 -1.40007812 6.25828125 -1.31640625 5.0390625 C-1 2 -1 2 0 0 Z " fill="#FB731E" transform="translate(1228,949)"/>
<path d="M0 0 C0.81028656 -0.02517197 1.62057312 -0.05034393 2.45541382 -0.07627869 C4.16811303 -0.11833859 5.88113343 -0.14873481 7.59423828 -0.16821289 C10.18739959 -0.21442429 12.76585966 -0.35119662 15.35546875 -0.49023438 C28.17133942 -0.85283977 28.17133942 -0.85283977 33.23583984 3.64770508 C36.72031507 7.36083246 40.02813667 11.27635492 41.12890625 16.35058594 C40.9609375 18.66015625 40.9609375 18.66015625 39.5859375 23.84765625 C38.5959375 29.12765625 37.6059375 34.40765625 36.5859375 39.84765625 C22.7259375 39.84765625 8.8659375 39.84765625 -5.4140625 39.84765625 C-4.7540625 42.81765625 -4.0940625 45.78765625 -3.4140625 48.84765625 C14.9009375 49.34265625 14.9009375 49.34265625 33.5859375 49.84765625 C32.4609375 58.84765625 32.4609375 58.84765625 31.5234375 62.84765625 C31.34683594 63.61078125 31.17023438 64.37390625 30.98828125 65.16015625 C30.85550781 65.71703125 30.72273438 66.27390625 30.5859375 66.84765625 C23.48849806 67.12775679 16.392493 67.31966966 9.29077148 67.4519043 C6.87812046 67.50704968 4.46583423 67.58199123 2.05444336 67.67749023 C-19.1611087 68.4963361 -19.1611087 68.4963361 -24.01611328 64.38525391 C-26.27333928 61.62085646 -27.91707908 59.07517919 -29.4140625 55.84765625 C-29.7440625 55.51765625 -30.0740625 55.18765625 -30.4140625 54.84765625 C-30.98804993 42.71564931 -30.56941427 21.56920415 -22.5859375 11.58203125 C-19.8344865 8.84511557 -16.75050419 6.82645012 -13.4140625 4.84765625 C-12.7020166 4.16920654 -11.9899707 3.49075684 -11.25634766 2.79174805 C-7.57128556 0.27120609 -4.32866619 0.11306998 0 0 Z " fill="#FB731E" transform="translate(1381.4140625,948.15234375)"/>
<path d="M0 0 C7.92 0 15.84 0 24 0 C23.3570907 5.78618369 22.64933283 11.40443665 21.58984375 17.10546875 C21.31954641 18.59828646 21.04936756 20.09112564 20.77929688 21.58398438 C20.35760381 23.89480327 19.93422143 26.20529234 19.50854492 28.51538086 C19.09361071 30.77377779 18.68513363 33.03327251 18.27734375 35.29296875 C18.08518532 36.31972969 18.08518532 36.31972969 17.8891449 37.36723328 C16.35885838 45.03824631 16.35885838 45.03824631 19 52 C23.4302197 52.7159951 26.28258886 51.73360539 29.99829102 49.26098633 C35.63745207 45.0513799 38.73094966 42.03129817 40.0625 34.8125 C40.32422608 32.70546236 40.53878892 30.59997618 40.72998047 28.48535156 C41.27002803 23.51457025 42.24350552 18.60690696 43.125 13.6875 C43.38228882 12.17410034 43.38228882 12.17410034 43.64477539 10.63012695 C43.80582764 9.68355225 43.96687988 8.73697754 44.1328125 7.76171875 C44.27605957 6.91569092 44.41930664 6.06966309 44.56689453 5.19799805 C45 3 45 3 46 0 C53.92 0 61.84 0 70 0 C68.05824743 12.51351654 66.017045 25.00879247 63.9375 37.5 C63.80784851 38.28040649 63.67819702 39.06081299 63.5446167 39.86486816 C63.16481725 42.14965631 62.7837814 44.43423484 62.40234375 46.71875 C62.23521629 47.72449066 62.23521629 47.72449066 62.06471252 48.75054932 C61.09986863 54.51241167 60.04542538 60.25016039 59 66 C51.08 66 43.16 66 35 66 C35.33 63.36 35.66 60.72 36 58 C35.47277344 58.5775 34.94554687 59.155 34.40234375 59.75 C27.08640733 66.42825575 20.12100204 67.33846056 10.44897461 67.30053711 C4.60758092 66.92584953 0.61191874 65.98893197 -3.57617188 61.7722168 C-9.01825586 55.23742356 -9.01825586 55.23742356 -8.98376465 51.01020813 C-8.88793091 50.30599228 -8.79209717 49.60177643 -8.69335938 48.8762207 C-8.58789795 48.08430832 -8.48243652 47.29239594 -8.3737793 46.47648621 C-7.75790369 42.39598347 -7.10659263 38.32471869 -6.40625 34.2578125 C-6.17887146 32.92253006 -6.17887146 32.92253006 -5.94689941 31.56027222 C-5.62879582 29.69621379 -5.3094036 27.83237484 -4.98876953 25.96875 C-4.49787006 23.11260764 -4.01234459 20.25558676 -3.52734375 17.3984375 C-3.21646459 15.58067462 -2.90527768 13.76296435 -2.59375 11.9453125 C-2.44893188 11.0922049 -2.30411377 10.23909729 -2.15490723 9.36013794 C-1.94964417 8.17277542 -1.94964417 8.17277542 -1.74023438 6.96142578 C-1.62111694 6.26687286 -1.50199951 5.57231995 -1.37927246 4.85671997 C-1 3 -1 3 0 0 Z " fill="#FA731E" transform="translate(925,949)"/>
<path d="M0 0 C4.34873986 1.53011217 5.30564183 3.12542656 7.375 7.1875 C9.72676795 12.66937903 9.60852443 17.71052879 9.5 23.5625 C9.49097656 24.48933594 9.48195313 25.41617188 9.47265625 26.37109375 C9.44922937 28.64350077 9.41642748 30.9153618 9.375 33.1875 C10.695 33.1875 12.015 33.1875 13.375 33.1875 C13.705 32.1975 14.035 31.2075 14.375 30.1875 C15.035 30.1875 15.695 30.1875 16.375 30.1875 C16.50892857 38.22321429 16.50892857 38.22321429 15.375 42.1875 C15.84550781 42.50460937 16.31601562 42.82171875 16.80078125 43.1484375 C21.69367803 46.81557753 23.28053672 49.8288763 24.6796875 55.7265625 C25.37511759 58.18791619 26.28805466 59.87766236 27.6875 62 C29.375 65.1875 29.375 65.1875 28.9375 67.75 C24.71860773 74.33147195 20.80505414 78.08554356 13.4375 80.9375 C6.04266571 81.83384355 2.0605497 81.22762181 -4.234375 77.06640625 C-12.56841091 70.51628979 -15.57110009 62.00540962 -18.625 52.1875 C-19.12 50.7025 -19.12 50.7025 -19.625 49.1875 C-20.78076901 34.52437807 -21.20529594 18.66856363 -11.19140625 6.84765625 C-10.67449219 6.29980469 -10.15757812 5.75195312 -9.625 5.1875 C-9.13902344 4.64996094 -8.65304687 4.11242187 -8.15234375 3.55859375 C-5.42241614 0.8869046 -3.8310733 0.19815896 0 0 Z " fill="#0B0501" transform="translate(509.625,969.8125)"/>
<path d="M0 0 C5.28 0 10.56 0 16 0 C15.690625 2.413125 15.38125 4.82625 15.0625 7.3125 C14.96718994 8.06829346 14.87187988 8.82408691 14.77368164 9.6027832 C14.39005485 12.5347599 13.93749832 15.18750504 13 18 C16.3 18 19.6 18 23 18 C22.85879286 19.93784265 22.71187127 21.87526955 22.5625 23.8125 C22.48128906 24.89144531 22.40007812 25.97039063 22.31640625 27.08203125 C22 30 22 30 21 33 C17.37 33 13.74 33 10 33 C9.896875 34.134375 9.79375 35.26875 9.6875 36.4375 C9.09636841 41.91416035 8.07737053 47.30453894 7.01635742 52.70678711 C6.10879049 57.55069438 5.78747476 62.06832465 6 67 C7.66342837 68.66342837 9.7825709 68.36048097 12.0625 68.5625 C13.44115234 68.68818359 13.44115234 68.68818359 14.84765625 68.81640625 C15.55792969 68.87699219 16.26820312 68.93757812 17 69 C16.38487455 74.00887867 15.72050581 79.00489672 15 84 C-7.92663033 85.87343322 -7.92663033 85.87343322 -13.921875 82.0078125 C-17.68586463 78.25470145 -19.9360116 75.72057756 -20.06567383 70.20776367 C-19.56369179 61.93230328 -18.0234389 53.81266038 -16.4375 45.6875 C-16.20353516 44.45837891 -15.96957031 43.22925781 -15.72851562 41.96289062 C-15.15864743 38.97399009 -14.58240652 35.98647794 -14 33 C-15.32 33 -16.64 33 -18 33 C-17.85930804 30.87465341 -17.71229079 28.74972471 -17.5625 26.625 C-17.48128906 25.44164062 -17.40007813 24.25828125 -17.31640625 23.0390625 C-17 20 -17 20 -16 18 C-14.92621094 17.79632812 -13.85242188 17.59265625 -12.74609375 17.3828125 C-7.57273948 15.47314888 -6.43056976 12.64408658 -4.0625 7.875 C-3.66482422 7.12089844 -3.26714844 6.36679687 -2.85742188 5.58984375 C-1.88424548 3.73729109 -0.93925056 1.86998183 0 0 Z " fill="#FB731E" transform="translate(1022,931)"/>
<path d="M0 0 C7.92 0 15.84 0 24 0 C23.67 2.97 23.34 5.94 23 9 C23.71542969 8.3503125 24.43085937 7.700625 25.16796875 7.03125 C32.05699766 1.25622965 36.23136002 -1.00754028 45.578125 -0.31640625 C46.37734375 -0.21199219 47.1765625 -0.10757813 48 0 C47.48429959 7.13837939 46.5289789 14.01001385 45 21 C44.42032471 21.0093457 43.84064941 21.01869141 43.2434082 21.02832031 C40.59893054 21.0822407 37.95618107 21.16584129 35.3125 21.25 C33.94448242 21.27126953 33.94448242 21.27126953 32.54882812 21.29296875 C31.66259766 21.32519531 30.77636719 21.35742188 29.86328125 21.390625 C29.05157471 21.41157227 28.23986816 21.43251953 27.40356445 21.45410156 C23.92852521 22.24335375 22.41860649 23.36170512 20 26 C18.90571731 28.98398644 18.44778291 32.00474239 17.98046875 35.140625 C17.83217117 36.02280701 17.6838736 36.90498901 17.53108215 37.81390381 C17.0634774 40.62310909 16.62517574 43.43599253 16.1875 46.25 C15.87496972 48.15916993 15.56053805 50.06802964 15.24414062 51.9765625 C14.47038214 56.6475455 13.73644975 61.32237678 13 66 C5.08 66 -2.84 66 -11 66 C-10.41648921 57.80984555 -9.42723504 49.85396559 -7.96875 41.77734375 C-7.67478333 40.1154879 -7.67478333 40.1154879 -7.37487793 38.4200592 C-6.96391056 36.10290644 -6.55034926 33.78621233 -6.13427734 31.4699707 C-5.49624269 27.91657445 -4.86661937 24.36176304 -4.23828125 20.80664062 C-3.83642311 18.54678859 -3.43409634 16.28701983 -3.03125 14.02734375 C-2.84268433 12.96490952 -2.65411865 11.90247528 -2.45983887 10.80784607 C-2.28295532 9.82574661 -2.10607178 8.84364716 -1.92382812 7.83178711 C-1.76918091 6.96863388 -1.61453369 6.10548065 -1.4552002 5.21617126 C-1 3 -1 3 0 0 Z " fill="#FA721E" transform="translate(1304,949)"/>
<path d="M0 0 C1.39802915 0.00822575 2.79605981 0.01619816 4.1940918 0.02392578 C23.51147176 0.16286662 42.73612688 1.22657043 61.98046875 2.88720703 C64.43553068 3.09667749 66.89133913 3.29750054 69.34765625 3.49169922 C73.27566916 3.80565 77.20009638 4.14950021 81.125 4.5 C82.94765381 4.63994385 82.94765381 4.63994385 84.80712891 4.78271484 C96.5792383 5.90033061 102.42083931 10.70483835 110.6875 18.75 C116.87551343 24.71557179 116.87551343 24.71557179 123.5 30.1875 C123.17 31.1775 122.84 32.1675 122.5 33.1875 C119.06199077 30.30916669 115.69604532 27.39389696 112.45703125 24.29296875 C101.15425575 13.49463131 93.10672674 9.47050698 77.5 8.1875 C78.18964844 8.92613281 78.87929688 9.66476562 79.58984375 10.42578125 C95.90866852 28.00483703 95.90866852 28.00483703 98.5 33.1875 C93.57075156 33.54408393 89.86989669 33.22959275 85.85546875 30.17578125 C83.28566784 27.59808541 80.8702213 24.94942735 78.5 22.1875 C77.84902344 21.45144531 77.19804688 20.71539063 76.52734375 19.95703125 C74.33569254 17.46673746 72.15656439 14.96706194 70.01953125 12.4296875 C67.31101882 9.42345655 65.31044157 7.90179179 61.30859375 7.0234375 C60.05175781 6.74757813 58.79492188 6.47171875 57.5 6.1875 C59.14432988 8.29285695 60.79006661 10.39707259 62.4375 12.5 C62.93096924 13.12994873 63.42443848 13.75989746 63.93286133 14.40893555 C67.85180689 19.3965128 71.85642945 24.30335669 75.91796875 29.17578125 C77.5 31.1875 77.5 31.1875 77.5 32.1875 C53.40321534 34.43468939 53.40321534 34.43468939 47.7109375 29.78515625 C45.29328842 27.15564488 43.4238146 24.20911428 41.64208984 21.12207031 C39.63004902 17.71390197 37.25298275 14.59527713 34.875 11.4375 C34.46709229 10.8295459 34.05918457 10.2215918 33.63891602 9.59521484 C31.93595852 7.25511463 30.43940863 5.41868842 27.5574646 4.70944214 C26.83515656 4.64918854 26.11284851 4.58893494 25.36865234 4.52685547 C24.17008102 4.42642944 24.17008102 4.42642944 22.94729614 4.32397461 C19.19586712 4.11477442 15.45995068 4.04450983 11.703125 4.0546875 C10.50813385 4.05325241 10.50813385 4.05325241 9.28900146 4.05178833 C7.62186605 4.05111358 5.95472789 4.05291816 4.28759766 4.05712891 C1.74245325 4.06251597 -0.80251702 4.05714532 -3.34765625 4.05078125 C-4.97656289 4.0514416 -6.60546942 4.05272187 -8.234375 4.0546875 C-8.98966492 4.05266327 -9.74495483 4.05063904 -10.52313232 4.04855347 C-14.30688817 4.0653204 -17.82143072 4.27555533 -21.5 5.1875 C-21.5 4.1975 -21.5 3.2075 -21.5 2.1875 C-14.49322714 -0.4822493 -7.40165245 -0.07640501 0 0 Z " fill="#050200" transform="translate(540.5,882.8125)"/>
<path d="M0 0 C1.38682272 -0.01149748 2.77360197 -0.03191439 4.16015625 -0.06152344 C18.44485437 -0.36635903 18.44485437 -0.36635903 24.34082031 4.29516602 C27.99041976 8.18022349 27.84618661 12.54028959 27.68847656 17.63500977 C27.18988357 21.45008652 25.97813225 23.51904819 23.34082031 26.29516602 C16.99168108 30.13046796 10.77538531 29.85348529 3.60083008 29.85107422 C1.41147196 29.85764156 -0.77335588 29.91219637 -2.96191406 29.96899414 C-14.66044217 30.10910328 -14.66044217 30.10910328 -19.07324219 26.40844727 C-23.04162662 22.1459386 -24.13450719 18.15577856 -23.97949219 12.28735352 C-23.29682727 8.04151074 -20.7289736 5.23528794 -17.59667969 2.48266602 C-12.26348267 -0.78606764 -6.0474247 0.03489447 0 0 Z " fill="#FC731E" transform="translate(264.6591796875,981.704833984375)"/>
<path d="M0 0 C2.19740997 0.00849452 4.39220293 -0.02024835 6.58935547 -0.05200195 C8.00211511 -0.05361481 9.41487931 -0.05303482 10.82763672 -0.05004883 C12.09978027 -0.05190186 13.37192383 -0.05375488 14.68261719 -0.05566406 C19.90702897 0.66189818 23.71519813 2.61672918 27.27294922 6.63354492 C29.2348076 11.82669945 28.98278165 16.54001053 27.21044922 21.75854492 C24.2017951 26.07094916 20.47565388 28.48290967 15.33544922 29.44604492 C11.21338601 29.67167764 7.08807124 29.63119434 2.96044922 29.63354492 C1.27435547 29.65191406 1.27435547 29.65191406 -0.44580078 29.6706543 C-8.49475549 29.68492549 -14.63546795 29.30765323 -20.66455078 23.44604492 C-23.2360061 19.16028606 -23.35904138 14.30747915 -22.66455078 9.44604492 C-17.67021806 -0.54262052 -9.95399446 -0.05876161 0 0 Z " fill="#FB731E" transform="translate(300.66455078125,858.553955078125)"/>
<path d="M0 0 C4.27408917 -0.00164935 8.54817459 -0.00461791 12.82226211 -0.00870216 C20.35469928 -0.01586751 27.88710776 -0.01717658 35.41954702 -0.01226884 C37.97396481 -0.01122992 40.52838379 -0.01179224 43.08280081 -0.01402742 C46.61383667 -0.01657964 50.14481001 -0.01278048 53.67584127 -0.00728112 C54.70974147 -0.00930819 55.74364166 -0.01133525 56.80887216 -0.01342374 C61.92795984 0.00162202 66.79308267 0.23661172 71.83770651 1.12211341 C73.33139151 5.8645633 72.21999525 9.76093603 70.83770651 14.37211341 C70.6134902 15.12629554 70.38927389 15.88047766 70.15826315 16.6575138 C68.02275446 23.34963981 65.01316316 29.81714351 58.62286276 33.34476966 C58.03376119 33.60129309 57.44465963 33.85781653 56.83770651 34.12211341 C57.89602845 32.00056987 58.96117477 29.88507017 60.05645651 27.78226966 C63.57353354 20.65161043 64.93009742 13.98090666 65.83770651 6.12211341 C51.56377788 5.36439278 37.33769238 4.97177539 23.04473776 4.98930091 C21.1044859 4.98828125 19.16423419 4.98693951 17.22398275 4.9853031 C12.08911891 4.98263791 6.954286 4.98701407 1.81942648 4.99354285 C-1.36832876 4.99713429 -4.55607945 4.99873668 -7.74383646 4.99979895 C-44.89052689 5.01516415 -82.02309387 5.38528674 -119.16229349 6.12211341 C-119.16229349 10.41211341 -119.16229349 14.70211341 -119.16229349 19.12211341 C-123.41163571 13.45632379 -124.57828915 9.19403951 -124.16229349 2.12211341 C-122.63875439 0.59857431 -121.27099168 0.96030339 -119.14154154 0.91679114 C-118.25581461 0.89685599 -117.37008768 0.87692084 -116.45752054 0.8563816 C-115.45646281 0.83965903 -114.45540507 0.82293647 -113.42401224 0.80570716 C-112.34134073 0.78483542 -111.25866923 0.76396369 -110.14318949 0.74245948 C-106.37881144 0.67411637 -102.61437006 0.61593053 -98.84979349 0.55961341 C-96.87681788 0.52834357 -96.87681788 0.52834357 -94.86398417 0.49644202 C-63.24535478 0.00657106 -31.6216999 0.01195544 0 0 Z " fill="#060200" transform="translate(703.1622934937477,948.8778865933418)"/>
<path d="M0 0 C1.13566406 -0.00773438 2.27132813 -0.01546875 3.44140625 -0.0234375 C6.4375 0.375 6.4375 0.375 8.34765625 1.5546875 C10.89277671 5.80567723 9.03530778 11.6538514 8.4375 16.375 C8.34694336 17.16261719 8.25638672 17.95023438 8.16308594 18.76171875 C7.86455664 21.30365134 7.53108695 23.8387922 7.1875 26.375 C7.04223877 27.59413086 7.04223877 27.59413086 6.89404297 28.83789062 C6.30543642 32.82153998 5.65598485 35.06896346 3.2734375 38.40625 C-0.28721686 40.87810923 -2.38512347 40.98461469 -6.6875 40.875 C-7.90695312 40.8646875 -9.12640625 40.854375 -10.3828125 40.84375 C-13.82464948 40.33635389 -14.51798862 40.04065269 -16.5625 37.375 C-17.7913596 30.93226465 -15.95236551 23.88234223 -14.6875 17.5625 C-14.51347656 16.63501953 -14.33945313 15.70753906 -14.16015625 14.75195312 C-12.28259456 5.10684919 -12.28259456 5.10684919 -8.84765625 1.6484375 C-5.78987627 -0.05555613 -3.48354134 -0.02377844 0 0 Z " fill="#050200" transform="translate(1089.5625,961.625)"/>
<path d="M0 0 C1.2065625 0.0309375 1.2065625 0.0309375 2.4375 0.0625 C3.76071876 12.78792295 4.67895563 25.26535144 4.4375 38.0625 C-3.1525 38.0625 -10.7425 38.0625 -18.5625 38.0625 C-16.72298976 32.54396927 -14.95333285 27.389522 -12.6796875 22.09375 C-12.41995148 21.48736694 -12.16021545 20.88098389 -11.89260864 20.25622559 C-11.35153551 18.99526302 -10.80871388 17.7350493 -10.26416016 16.47558594 C-9.42794426 14.54038577 -8.59837983 12.60242796 -7.76953125 10.6640625 C-3.21920313 0.07851715 -3.21920313 0.07851715 0 0 Z " fill="#070300" transform="translate(874.5625,939.9375)"/>
<path d="M0 0 C6.23569316 2.3695634 8.97673575 7.52144345 11.6875 13.375 C12.9818219 16.36889474 14.19845349 19.3781567 15.37109375 22.421875 C15.78488281 23.47890625 16.19867187 24.5359375 16.625 25.625 C16.9859375 26.59308594 17.346875 27.56117188 17.71875 28.55859375 C20.00940917 32.84085381 22.72222274 34.70470208 27.27870178 36.2729187 C31.38032612 37.24821201 35.2568403 37.53310505 39.44702148 37.59814453 C40.64824394 37.62784332 40.64824394 37.62784332 41.87373352 37.65814209 C44.49773692 37.72087667 47.12181252 37.77068769 49.74609375 37.8203125 C51.57456755 37.86149457 53.40302323 37.9034886 55.23146057 37.94625854 C60.02673601 38.05625674 64.82217693 38.15526885 69.61773682 38.25195312 C74.51809283 38.35270868 79.41821074 38.46391023 84.31835938 38.57421875 C93.92036915 38.7888389 103.52258632 38.9918474 113.125 39.1875 C113.125 39.5175 113.125 39.8475 113.125 40.1875 C89.98307665 41.29180398 66.81874599 42.38864144 43.64938354 42.65185547 C41.89345215 42.67547959 40.13762787 42.70953606 38.3821106 42.75439453 C23.21218549 43.12389154 23.21218549 43.12389154 18.703125 39.578125 C16.03574311 36.54199305 14.42728281 33.21509881 13 29.4375 C10.91528226 24.14724854 8.65589115 19.10780898 6.0078125 14.078125 C5.125 12.1875 5.125 12.1875 5.125 10.1875 C1.98769264 8.3283549 -0.2381915 7.82381915 -3.875 8.1875 C-6.12632517 9.10318906 -6.12632517 9.10318906 -7.875 10.1875 C-7.5639194 6.76561345 -7.16034154 4.59966 -5.1875 1.75 C-2.875 0.1875 -2.875 0.1875 0 0 Z " fill="#0D0601" transform="translate(510.875,957.8125)"/>
<path d="M0 0 C0.66 0.33 1.32 0.66 2 1 C1.50628906 1.53109375 1.01257813 2.0621875 0.50390625 2.609375 C-0.45708984 3.66898438 -0.45708984 3.66898438 -1.4375 4.75 C-2.07558594 5.44609375 -2.71367187 6.1421875 -3.37109375 6.859375 C-4.99081325 8.98792725 -5.58267256 10.39023405 -6 13 C-5.443125 12.443125 -4.88625 11.88625 -4.3125 11.3125 C-3.549375 10.549375 -2.78625 9.78625 -2 9 C-1.21625 8.13375 -0.4325 7.2675 0.375 6.375 C3.19497102 3.82359765 5.35074555 2.93353021 9 2 C6.73988746 4.34703995 4.65565458 6.2319061 1.9375 8.0625 C-1.85788342 11.09307064 -2.40344431 15.0883099 -3.359375 19.671875 C-3.57078125 20.44015625 -3.7821875 21.2084375 -4 22 C-4.66 22.33 -5.32 22.66 -6 23 C-4.35 23.99 -2.7 24.98 -1 26 C-1.75 31.75 -1.75 31.75 -4 34 C-6.68839385 34.26991906 -9.29141936 34.08737357 -12 34 C-12.66 32.68 -13.32 31.36 -14 30 C-14.29132813 30.61488281 -14.58265625 31.22976563 -14.8828125 31.86328125 C-17.610709 37.24186963 -19.35931604 39.53220077 -25 42 C-26.87739911 43.88722842 -28.38932795 45.86822817 -30 48 C-31.43456268 43.69631196 -29.49880033 41.00001228 -27.625 37.125 C-27.25922852 36.36413086 -26.89345703 35.60326172 -26.51660156 34.81933594 C-19.85946936 21.34104703 -10.56238318 10.56238318 0 0 Z " fill="#0A0401" transform="translate(496,884)"/>
<path d="M0 0 C7.55000498 -0.18112386 14.98702969 0.48008537 22.5 1.1875 C24.42005859 1.33928711 24.42005859 1.33928711 26.37890625 1.49414062 C38.70572453 2.67328301 44.53015533 7.13712246 53.1875 15.5625 C59.37551343 21.52807179 59.37551343 21.52807179 66 27 C65.505 28.485 65.505 28.485 65 30 C61.56199077 27.12166669 58.19604532 24.20639696 54.95703125 21.10546875 C43.65425575 10.30713131 35.60672674 6.28300698 20 5 C20.68964844 5.73863281 21.37929688 6.47726562 22.08984375 7.23828125 C38.40866852 24.81733703 38.40866852 24.81733703 41 30 C36.07075156 30.35658393 32.36989669 30.04209275 28.35546875 26.98828125 C25.78566784 24.41058541 23.3702213 21.76192735 21 19 C20.34902344 18.26394531 19.69804688 17.52789063 19.02734375 16.76953125 C14.54799203 11.67980632 14.54799203 11.67980632 12.5546875 9.20703125 C9.61859305 5.82972042 7.63389372 4.63929569 3.125 4.125 C1.7510514 4.05698274 0.37561758 4.00611386 -1 4 C-0.67 2.68 -0.34 1.36 0 0 Z " fill="#0E0601" transform="translate(598,886)"/>
<path d="M0 0 C-0.33 1.32 -0.66 2.64 -1 4 C-49.84 4 -98.68 4 -149 4 C-149 3.67 -149 3.34 -149 3 C-132.15060288 1.85606796 -115.28721934 1.721394 -98.40701294 1.52747726 C-91.27255095 1.44386267 -84.13823071 1.34841145 -77.00390625 1.25390625 C-76.2231284 1.24366991 -75.44235054 1.23343357 -74.63791275 1.22288704 C-59.20925432 1.01938608 -43.78446283 0.70494002 -28.35961914 0.3046875 C-18.9029618 0.06260638 -9.46010314 -0.05530684 0 0 Z " fill="#863D10" transform="translate(759,971)"/>
<path d="M0 0 C-0.66 0.99 -1.32 1.98 -2 3 C-4.03053284 3.39199829 -4.03053284 3.39199829 -6.56860352 3.41650391 C-8.00231796 3.44140648 -8.00231796 3.44140648 -9.46499634 3.46681213 C-11.03113174 3.47163857 -11.03113174 3.47163857 -12.62890625 3.4765625 C-13.71182953 3.4918248 -14.79475281 3.5070871 -15.91049194 3.52281189 C-19.46113804 3.57025354 -23.0116482 3.5975186 -26.5625 3.625 C-30.25829592 3.66924327 -33.95400483 3.71846211 -37.6497345 3.76789856 C-40.09534009 3.80021791 -42.54096914 3.83080875 -44.98661804 3.85966492 C-53.64524997 3.96485036 -62.28498072 4.21941976 -70.9375 4.5625 C-97.26247436 5.5254776 -123.66153928 5.08314253 -150 5 C-150 4.67 -150 4.34 -150 4 C-41.72489939 -0.35369307 -41.72489939 -0.35369307 0 0 Z " fill="#261104" transform="translate(752,978)"/>
<path d="M0 0 C0.74362793 0.01047363 1.48725586 0.02094727 2.25341797 0.03173828 C3.46191406 0.04140625 3.46191406 0.04140625 4.69482422 0.05126953 C5.95746094 0.07640625 5.95746094 0.07640625 7.24560547 0.10205078 C8.51984375 0.11558594 8.51984375 0.11558594 9.81982422 0.12939453 C11.9202043 0.15299431 14.02043991 0.18886595 16.12060547 0.22705078 C16.46435547 2.85986328 16.46435547 2.85986328 16.12060547 6.22705078 C14.32398963 8.52073033 12.76444522 10.20557715 10.62060547 12.10205078 C10.11529297 12.59962891 9.60998047 13.09720703 9.08935547 13.60986328 C6.07439385 16.35347835 3.97271149 17.55257269 -0.16064453 17.61376953 C-3.87939453 17.22705078 -3.87939453 17.22705078 -5.87939453 16.16455078 C-7.47327149 13.07641416 -7.23262608 10.64162244 -6.87939453 7.22705078 C-3.55620999 0.42962786 -3.55620999 0.42962786 0 0 Z " fill="#030100" transform="translate(1242.87939453125,984.77294921875)"/>
<path d="M0 0 C0.15984375 0.78632812 0.3196875 1.57265625 0.484375 2.3828125 C1.83618836 5.40137236 1.83618836 5.40137236 5.640625 6.1171875 C7.17452366 6.38489623 8.71127924 6.63656447 10.25 6.875 C21.77223871 9.03570816 31.10244272 13.23461692 40 21 C36.57191753 21 34.9419321 20.16853986 31.875 18.6875 C21.61651098 13.91642408 12.57349777 11.85655848 1.21875 11.90234375 C0.51979614 11.9037587 -0.17915771 11.90517365 -0.89929199 11.90663147 C-3.09957429 11.9121633 -5.29974923 11.92470223 -7.5 11.9375 C-9.00520685 11.94252384 -10.51041532 11.94708518 -12.015625 11.95117188 C-15.67711735 11.96211023 -19.33854817 11.97932641 -23 12 C-21.77807617 9.53051758 -21.77807617 9.53051758 -20 7 C-17.9152832 6.43237305 -17.9152832 6.43237305 -15.55078125 6.51171875 C-14.70322266 6.52783203 -13.85566406 6.54394531 -12.98242188 6.56054688 C-11.66081055 6.62338867 -11.66081055 6.62338867 -10.3125 6.6875 C-9.41982422 6.71005859 -8.52714844 6.73261719 -7.60742188 6.75585938 C-5.40325728 6.81479426 -3.20247328 6.89699182 -1 7 C-1.34520448 5.03506426 -1.34520448 5.03506426 -2 3 C-3.9837767 1.71563266 -3.9837767 1.71563266 -6 1 C-3.92446352 0.4465236 -2.15634036 0 0 0 Z " fill="#0F0701" transform="translate(493,919)"/>
<path d="M0 0 C4.49743031 2.24871515 4.49743031 2.24871515 6.2890625 5.84375 C6.67320312 6.59527344 7.05734375 7.34679688 7.453125 8.12109375 C7.83984375 8.90613281 8.2265625 9.69117188 8.625 10.5 C9.40567039 12.05368715 10.18939311 13.60584542 10.9765625 15.15625 C11.31768066 15.84525391 11.65879883 16.53425781 12.01025391 17.24414062 C12.99393933 19.17311647 12.99393933 19.17311647 15 21 C14.9375 22.9375 14.9375 22.9375 14 25 C10.10663263 28.20630254 6.93623109 28.37254574 2 28 C1.34 27.67 0.68 27.34 0 27 C0 18.09 0 9.18 0 0 Z " fill="#F6711D" transform="translate(519,1017)"/>
<path d="M0 0 C2.70703125 0.63671875 2.70703125 0.63671875 4.6328125 2.1171875 C5.70703125 4.63671875 5.70703125 4.63671875 4.70703125 13.63671875 C-1.89296875 13.63671875 -8.49296875 13.63671875 -15.29296875 13.63671875 C-15.29296875 7.52832511 -15.25665487 6.15589727 -11.4140625 2 C-7.79110103 -0.32857008 -4.19817863 -0.06864946 0 0 Z " fill="#110802" transform="translate(1394.29296875,961.36328125)"/>
<path d="M0 0 C1 2 1 2 0.2578125 4.2421875 C-0.11601562 5.11101563 -0.48984375 5.97984375 -0.875 6.875 C-6.79613704 20.74619517 -5.04490123 37.45216476 0.3125 51.25 C3.51224584 58.50523765 6.71486237 62.90015498 14.0625 66.25390625 C16.3485812 67.13423187 18.56884821 67.69610603 21 68 C21 68.33 21 68.66 21 69 C14.59953141 69.52248723 10.07714505 69.12288646 5 65 C-4.79192723 55.92983645 -7.69533987 44.273192 -8.21875 31.36328125 C-8.53498877 19.21563968 -7.84448925 9.75260826 0 0 Z " fill="#EB6B1C" transform="translate(502,979)"/>
<path d="M0 0 C0.99 0 1.98 0 3 0 C3.67608269 2.85222385 4.34105115 5.70631293 5 8.5625 C5.19078125 9.36236328 5.3815625 10.16222656 5.578125 10.98632812 C6.67461122 15.78345532 7.21132197 20.08016034 7 25 C2.76916309 23.69045524 -1.127397 22.16145284 -5 20 C-6.53291157 16.93417686 -6.64520974 14.30161382 -6 11 C-4.24078018 7.18408295 -2.18072954 3.58911737 0 0 Z " fill="#F6701D" transform="translate(507,981)"/>
<path d="M0 0 C0.66 0.33 1.32 0.66 2 1 C1.38511719 1.40089844 0.77023437 1.80179688 0.13671875 2.21484375 C-5.94174675 6.49012809 -8.43165799 9.77442431 -10 17 C-11 20 -11 20 -13 21 C-11.35 21.99 -9.7 22.98 -8 24 C-8.75 29.75 -8.75 29.75 -11 32 C-13.68839385 32.26991906 -16.29141936 32.08737357 -19 32 C-20.86636154 27.12741853 -21.38696442 24.47062532 -19.23828125 19.45703125 C-18.95339844 18.85246094 -18.66851562 18.24789062 -18.375 17.625 C-18.11332031 16.99722656 -17.85164063 16.36945312 -17.58203125 15.72265625 C-16.7734375 13.9140625 -16.7734375 13.9140625 -15 11 C-12.90234375 10.26171875 -12.90234375 10.26171875 -11 10 C-10.401875 9.071875 -9.80375 8.14375 -9.1875 7.1875 C-6.45858852 3.21108612 -4.33665384 2.00771011 0 0 Z " fill="#DE661B" transform="translate(503,886)"/>
<path d="M0 0 C0.66 0.66 1.32 1.32 2 2 C1.69294116 8.90882395 -0.88827864 15.46839674 -3 22 C-6 21 -6 21 -7.640625 17.796875 C-8.1889443 16.45269418 -8.72493854 15.10343511 -9.25 13.75 C-9.53101563 13.08097656 -9.81203125 12.41195313 -10.1015625 11.72265625 C-11.67028249 7.76979252 -12.36192728 5.08578184 -11 1 C-7.26779887 0.12183503 -3.83453269 -0.25563551 0 0 Z " fill="#F9721E" transform="translate(513,1013)"/>
<path d="M0 0 C4.29 0 8.58 0 13 0 C13.226875 2.0625 13.45375 4.125 13.6875 6.25 C14.56797287 12.62048015 16.32563646 17.88049598 19.07421875 23.671875 C19.37972656 24.44015625 19.68523437 25.2084375 20 26 C19.67 26.66 19.34 27.32 19 28 C13.49663338 21.72685141 8.38916484 15.39866301 3.875 8.375 C3.48513916 7.77155762 3.09527832 7.16811523 2.69360352 6.54638672 C0 2.26619025 0 2.26619025 0 0 Z " fill="#110802" transform="translate(470,1014)"/>
<path d="M0 0 C-0.33 0.99 -0.66 1.98 -1 3 C-33.67 3 -66.34 3 -100 3 C-100 2.67 -100 2.34 -100 2 C-89.17648768 1.73710591 -78.35292968 1.47618523 -67.52931118 1.21769714 C-62.50202062 1.09757594 -57.47474747 0.97680691 -52.44750977 0.85449219 C-47.58458661 0.73620024 -42.72162347 0.6196951 -37.85862923 0.50436401 C-36.01493908 0.46033724 -34.1712635 0.41569578 -32.32760429 0.37039185 C-21.54883915 0.1059872 -10.78232162 -0.06437779 0 0 Z " fill="#140902" transform="translate(759,971)"/>
<path d="M0 0 C0.66 1.32 1.32 2.64 2 4 C3.258125 4 4.51625 4 5.8125 4 C8.20833333 4 10.60416667 4 13 4 C12 6 12 6 9 8 C9.33 9.65 9.66 11.3 10 13 C5.71 13 1.42 13 -3 13 C-3.33 13.99 -3.66 14.98 -4 16 C-4 15.01 -4 14.02 -4 13 C-6.02045442 13.60183749 -8.02111039 14.27306096 -10 15 C-10.33 15.66 -10.66 16.32 -11 17 C-8.36 17.33 -5.72 17.66 -3 18 C-3 18.33 -3 18.66 -3 19 C-4.62490954 19.02698189 -6.24994633 19.04638757 -7.875 19.0625 C-9.23238281 19.07990234 -9.23238281 19.07990234 -10.6171875 19.09765625 C-13 19 -13 19 -15 18 C-13.50521886 14.19510255 -11.30557786 12.33809165 -8 10 C-7.01 9.67 -6.02 9.34 -5 9 C-3.54355243 6.91187542 -3.54355243 6.91187542 -2.3125 4.4375 C-1.87550781 3.61121094 -1.43851562 2.78492188 -0.98828125 1.93359375 C-0.66214844 1.29550781 -0.33601563 0.65742187 0 0 Z " fill="#F8711E" transform="translate(482,913)"/>
<path d="M0 0 C1.3789859 0.00686785 2.75797363 0.01337496 4.13696289 0.01953125 C15.93823369 0.0945618 27.71686524 0.53353018 39.5 1.1875 C39.5 1.5175 39.5 1.8475 39.5 2.1875 C35.87 2.1875 32.24 2.1875 28.5 2.1875 C28.5 2.8475 28.5 3.5075 28.5 4.1875 C27.94733963 4.18527939 27.39467926 4.18305878 26.82527161 4.18077087 C21.06638232 4.15862485 15.30750515 4.14355447 9.54858398 4.13256836 C7.40014148 4.12754371 5.2517024 4.12072292 3.10327148 4.11206055 C0.0128495 4.09991322 -3.07752722 4.09425295 -6.16796875 4.08984375 C-7.12648239 4.08468246 -8.08499603 4.07952118 -9.07255554 4.07420349 C-10.42338982 4.07409019 -10.42338982 4.07409019 -11.80151367 4.07397461 C-12.58983078 4.071754 -13.37814789 4.06953339 -14.19035339 4.06724548 C-16.70419855 4.19813184 -19.04610177 4.63929104 -21.5 5.1875 C-21.5 4.1975 -21.5 3.2075 -21.5 2.1875 C-14.49253872 -0.4825116 -7.40226238 -0.0746794 0 0 Z " fill="#140902" transform="translate(540.5,882.8125)"/>
<path d="M0 0 C0.91007813 -0.03996094 1.82015625 -0.07992187 2.7578125 -0.12109375 C10.70941609 1.30381767 16.475393 7.56259538 22.0625 13 C28.25051343 18.96557179 28.25051343 18.96557179 34.875 24.4375 C34.38 25.9225 34.38 25.9225 33.875 27.4375 C30.43699077 24.55916669 27.07104532 21.64389696 23.83203125 18.54296875 C14.0322789 9.18614306 6.71334293 4.00631383 -7.125 2.4375 C-4.5895326 -0.0979674 -3.52293851 0.08341219 0 0 Z " fill="#180B03" transform="translate(629.125,888.5625)"/>
<path d="M0 0 C-0.66 0.99 -1.32 1.98 -2 3 C-4.06277466 3.36076355 -4.06277466 3.36076355 -6.63330078 3.34057617 C-7.59414581 3.34034958 -8.55499084 3.34012299 -9.54495239 3.33988953 C-10.58457123 3.32440567 -11.62419006 3.30892181 -12.6953125 3.29296875 C-13.75789276 3.28872391 -14.82047302 3.28447906 -15.91525269 3.28010559 C-19.31875646 3.26327389 -22.72167433 3.22561303 -26.125 3.1875 C-28.42837688 3.17245899 -30.73176302 3.15876958 -33.03515625 3.14648438 C-38.69030505 3.11335574 -44.34511068 3.06311197 -50 3 C-49.67 2.34 -49.34 1.68 -49 1 C-32.65824395 0.00959054 -16.36885022 -0.11611648 0 0 Z " fill="#120802" transform="translate(752,978)"/>
<path d="M0 0 C3.95556641 3.51806641 3.95556641 3.51806641 4.35546875 7.85546875 C4.31978194 9.30012351 4.26318322 10.74438775 4.1875 12.1875 C4.09401952 14.79355328 4.03241702 17.39190322 4 20 C4.33 20.33 4.66 20.66 5 21 C5.26247139 25.54950416 4.99544337 28.88439805 3 33 C0.14305525 28.71458287 -0.12134552 25.84659486 -0.09765625 20.80078125 C-0.09443359 19.59228516 -0.09121094 18.38378906 -0.08789062 17.13867188 C-0.07951172 15.87603516 -0.07113281 14.61339844 -0.0625 13.3125 C-0.05573242 11.40114258 -0.05573242 11.40114258 -0.04882812 9.45117188 C-0.03702873 6.30073436 -0.02056597 3.15039051 0 0 Z " fill="#0D0601" transform="translate(464,973)"/>
<path d="M0 0 C1.32 0 2.64 0 4 0 C4 0.99 4 1.98 4 3 C3.01 3 2.02 3 1 3 C1 3.99 1 4.98 1 6 C2.65 6 4.3 6 6 6 C6 6.66 6 7.32 6 8 C4.02 8 2.04 8 0 8 C0.33 8.66 0.66 9.32 1 10 C3.52733235 10.65555119 3.52733235 10.65555119 6 11 C6.02687279 12.81242052 6.04633715 14.62495233 6.0625 16.4375 C6.07410156 17.44683594 6.08570313 18.45617187 6.09765625 19.49609375 C6 22 6 22 5 23 C3.33382885 23.04063832 1.66611905 23.042721 0 23 C-0.91415319 19.11122133 -1.13432455 15.49090618 -1.125 11.5 C-1.12757813 10.3965625 -1.13015625 9.293125 -1.1328125 8.15625 C-1.01325821 5.31507756 -0.64925815 2.76192358 0 0 Z " fill="#411E08" transform="translate(463,942)"/>
<path d="M0 0 C2.64 0.33 5.28 0.66 8 1 C8.88910615 3.90980194 9.22167778 5.45319482 8.0625 8.3125 C4.83426664 10.95378184 2.08676931 10.26798487 -2 10 C-2.6875 8.375 -2.6875 8.375 -3 6 C-1.5625 2.75 -1.5625 2.75 0 0 Z " fill="#080301" transform="translate(486,908)"/>
<path d="M0 0 C2 2 2 2 2 5 C-5.83007808 7.31420791 -13.62378353 8.93227581 -21.6875 10.1875 C-23.30108398 10.45336914 -23.30108398 10.45336914 -24.94726562 10.72460938 C-30.70802117 11.63828708 -36.16833679 12.20449605 -42 12 C-42 11.67 -42 11.34 -42 11 C-37.12682913 9.99560018 -32.25216152 8.99894092 -27.37597656 8.00927734 C-25.71897201 7.6718592 -24.06238841 7.33236671 -22.40625 6.99072266 C-20.0193192 6.49870507 -17.63095091 6.01428134 -15.2421875 5.53125 C-14.50757294 5.37813354 -13.77295837 5.22501709 -13.01608276 5.06726074 C-8.94766537 4.25305068 -5.1477649 3.84025115 -1 4 C-0.67 2.68 -0.34 1.36 0 0 Z " fill="#411E08" transform="translate(786,1020)"/>
<path d="M0 0 C1.32 0.66 2.64 1.32 4 2 C4 3.65 4 5.3 4 7 C-6.33333333 7 -16.66666667 7 -27 7 C-27 6.67 -27 6.34 -27 6 C-26.21761963 5.88930176 -25.43523926 5.77860352 -24.62915039 5.66455078 C-21.10552641 5.16068907 -17.58406623 4.64303948 -14.0625 4.125 C-12.83080078 3.95097656 -11.59910156 3.77695312 -10.33007812 3.59765625 C-9.16025391 3.42363281 -7.99042969 3.24960937 -6.78515625 3.0703125 C-5.70113525 2.91320801 -4.61711426 2.75610352 -3.50024414 2.59423828 C-2.26262329 2.30009033 -2.26262329 2.30009033 -1 2 C-0.67 1.34 -0.34 0.68 0 0 Z " fill="#321706" transform="translate(796,981)"/>
<path d="M0 0 C2.93717598 1.55341618 5.03290264 3.32088581 7 6 C7.9375 9.375 7.9375 9.375 8 12 C7.34 11.01 6.68 10.02 6 9 C3.78262675 5.92428872 2.20810783 4.21437101 -1.59765625 3.5390625 C-6.00172843 3.38494961 -9.08740554 3.505678 -13 5.625 C-15.21783853 8.25868325 -16.63766013 10.84510766 -18 14 C-19 11 -19 11 -17.9375 8.125 C-13.40526614 0.81494539 -8.56004685 -1.90373282 0 0 Z " fill="#2C1405" transform="translate(560,950)"/>
<path d="M0 0 C11.34432997 -0.06954971 22.66186532 0.13606591 34 0.5 C35.56509724 0.54840172 37.13020141 0.59657974 38.6953125 0.64453125 C42.46362613 0.76045742 46.23183455 0.8793571 50 1 C50 1.33 50 1.66 50 2 C12.10660782 3.8727544 12.10660782 3.8727544 0 1 C0 0.67 0 0.34 0 0 Z " fill="#3A1A07" transform="translate(574,996)"/>
<path d="M0 0 C3.0309968 1.48990837 5.13316038 3.17405012 7 6 C7.55835355 9.09358047 7.43446266 11.89669529 7 15 C6.67 15 6.34 15 6 15 C5.855625 13.906875 5.71125 12.81375 5.5625 11.6875 C5.11711896 8.06877013 5.11711896 8.06877013 4 5 C0.53455907 2.4675624 -2.84045178 2.49798556 -7 3 C-10.68937454 5.55418237 -13.51169164 8.26753746 -16 12 C-15.55396127 6.94489444 -13.35299176 4.59833262 -10 1 C-6.7226883 -0.63865585 -3.52838406 -0.64613137 0 0 Z " fill="#291305" transform="translate(796,948)"/>
<path d="M0 0 C2.78948656 4.18422984 3.12654452 7.23434219 3.09765625 12.203125 C3.09443359 13.1828125 3.09121094 14.1625 3.08789062 15.171875 C3.07951172 16.18765625 3.07113281 17.2034375 3.0625 18.25 C3.05798828 19.28125 3.05347656 20.3125 3.04882812 21.375 C3.03706088 23.91672573 3.02062011 26.45833319 3 29 C2.67 29 2.34 29 2 29 C-0.38222795 19.34346884 -0.19538118 9.86674975 0 0 Z " fill="#150902" transform="translate(459,960)"/>
<path d="M0 0 C0.88230697 2.41698637 1.21117289 3.52987755 0.13671875 5.921875 C-2.16403412 8.82417242 -3.8153633 10.70244604 -7.48828125 11.625 C-11.87500606 11.83296325 -14.19282221 11.67264816 -17.625 8.8125 C-19.05615533 5.88513683 -19.36646701 4.20658632 -19 1 C-17 3 -17 3 -15.8125 5.625 C-14.14519826 8.37146823 -14.14519826 8.37146823 -10.625 8.5625 C-6.48270071 7.91972942 -4.89578201 6.97851864 -2 4 C-0.68834743 1.88339573 -0.68834743 1.88339573 0 0 Z " fill="#311605" transform="translate(800,964)"/>
<path d="M0 0 C0.33 1.32 0.66 2.64 1 4 C-3.29 4 -7.58 4 -12 4 C-12.33 4.99 -12.66 5.98 -13 7 C-13 6.01 -13 5.02 -13 4 C-15.02045442 4.60183749 -17.02111039 5.27306096 -19 6 C-19.33 6.66 -19.66 7.32 -20 8 C-17.36 8.33 -14.72 8.66 -12 9 C-12 9.33 -12 9.66 -12 10 C-13.62490954 10.02698189 -15.24994633 10.04638757 -16.875 10.0625 C-18.23238281 10.07990234 -18.23238281 10.07990234 -19.6171875 10.09765625 C-22 10 -22 10 -24 9 C-22.50902342 5.2047869 -20.24299151 3.38957269 -17 1 C-16.34 1.33 -15.68 1.66 -15 2 C-12.45384991 2.23172827 -9.92603775 2.41894529 -7.375 2.5625 C-6.66859375 2.60568359 -5.9621875 2.64886719 -5.234375 2.69335938 C-3.48981463 2.79944751 -1.74493303 2.90022889 0 3 C0 2.01 0 1.02 0 0 Z " fill="#A64C14" transform="translate(491,922)"/>
<path d="M0 0 C0.66 0.33 1.32 0.66 2 1 C1.38511719 1.40089844 0.77023437 1.80179688 0.13671875 2.21484375 C-5.97045874 6.51032266 -8.35279997 9.77879271 -10 17 C-10.33 17.66 -10.66 18.32 -11 19 C-11.99 19 -12.98 19 -14 19 C-11.92754525 11.93481337 -9.96985697 5.58508911 -3.375 1.5625 C-2.26125 1.046875 -1.1475 0.53125 0 0 Z " fill="#210F04" transform="translate(503,886)"/>
<path d="M0 0 C1.32 0.66 2.64 1.32 4 2 C4 3.65 4 5.3 4 7 C0.88772805 7 -1.94152152 6.54372951 -5 6 C-4.67 5.01 -4.34 4.02 -4 3 C-3.01 2.67 -2.02 2.34 -1 2 C-0.67 1.34 -0.34 0.68 0 0 Z " fill="#0F0701" transform="translate(796,981)"/>
<path d="M0 0 C0 0.99 0 1.98 0 3 C-3.16794615 5.70434427 -5.35818061 6.90831152 -9.5 7.5 C-13.58408663 6.91655905 -15.77702775 5.51549054 -19 3 C-18.67 2.34 -18.34 1.68 -18 1 C-17.154375 1.680625 -16.30875 2.36125 -15.4375 3.0625 C-12.1404073 5.29153901 -12.1404073 5.29153901 -8.4375 5 C-4.77453446 3.93441002 -2.75955712 2.59231123 0 0 Z " fill="#2A1305" transform="translate(564,971)"/>
<path d="M0 0 C1.65 0 3.3 0 5 0 C5.33 0.99 5.66 1.98 6 3 C5.01 4.485 5.01 4.485 4 6 C2.35 5.67 0.7 5.34 -1 5 C-0.67 3.35 -0.34 1.7 0 0 Z " fill="#883E10" transform="translate(789,958)"/>
<path d="M0 0 C2.6875 -0.3125 2.6875 -0.3125 5 0 C4.67 1.65 4.34 3.3 4 5 C1.69 5 -0.62 5 -3 5 C-1.8125 2.5 -1.8125 2.5 0 0 Z " fill="#010000" transform="translate(473,926)"/>
<path d="M0 0 C1.65 0 3.3 0 5 0 C5 0.66 5 1.32 5 2 C3.68 2 2.36 2 1 2 C1 2.66 1 3.32 1 4 C2.65 4 4.3 4 6 4 C5.67 4.99 5.34 5.98 5 7 C3.35 7 1.7 7 0 7 C0 4.69 0 2.38 0 0 Z " fill="#210F04" transform="translate(463,958)"/>
<path d="M0 0 C0.66 0.33 1.32 0.66 2 1 C0.8758824 2.29243468 -0.24932592 3.58392075 -1.375 4.875 C-2.00148438 5.59429688 -2.62796875 6.31359375 -3.2734375 7.0546875 C-6.68060837 10.89353612 -6.68060837 10.89353612 -10 12 C-8.52278578 8.54798361 -6.56205999 6.35038064 -3.875 3.75 C-3.15054687 3.04359375 -2.42609375 2.3371875 -1.6796875 1.609375 C-1.12539063 1.07828125 -0.57109375 0.5471875 0 0 Z " fill="#361906" transform="translate(496,884)"/>
<path d="M0 0 C0.66 0.33 1.32 0.66 2 1 C1 4 1 4 -1.1796875 5.38671875 C-2.06914062 5.81597656 -2.95859375 6.24523437 -3.875 6.6875 C-4.75929688 7.12449219 -5.64359375 7.56148437 -6.5546875 8.01171875 C-9 9 -9 9 -12 9 C-10.56351736 7.87370125 -9.12577415 6.7490101 -7.6875 5.625 C-6.88699219 4.99851562 -6.08648437 4.37203125 -5.26171875 3.7265625 C-3.55336788 2.42243282 -1.78827274 1.19218183 0 0 Z " fill="#361806" transform="translate(510,874)"/>
<path d="M0 0 C1.32 0 2.64 0 4 0 C4 0.99 4 1.98 4 3 C3.01 3 2.02 3 1 3 C1 3.99 1 4.98 1 6 C2.65 6 4.3 6 6 6 C6 6.66 6 7.32 6 8 C4.02 8 2.04 8 0 8 C0 5.36 0 2.72 0 0 Z " fill="#210F04" transform="translate(463,942)"/>
<path d="M0 0 C-0.33 0.66 -0.66 1.32 -1 2 C-4.98375661 3.17169312 -8.87439224 3.08089427 -13 3 C-12.67 2.34 -12.34 1.68 -12 1 C-8.01624339 -0.17169312 -4.12560776 -0.08089427 0 0 Z " fill="#220F04" transform="translate(776,1026)"/>
<path d="M0 0 C3.66172475 0.62678171 6.8818995 1.64451846 10.3125 3.0625 C11.19550781 3.42472656 12.07851563 3.78695312 12.98828125 4.16015625 C13.65214844 4.43730469 14.31601562 4.71445312 15 5 C14.01 5.66 13.02 6.32 12 7 C8.04 5.02 4.08 3.04 0 1 C0 0.67 0 0.34 0 0 Z " fill="#BA5516" transform="translate(679,927)"/>
<path d="M0 0 C0.66 0.33 1.32 0.66 2 1 C1.67 1.99 1.34 2.98 1 4 C0.01 4.33 -0.98 4.66 -2 5 C-2 4.34 -2 3.68 -2 3 C-2.99 3.33 -3.98 3.66 -5 4 C-7.6875 3.5625 -7.6875 3.5625 -10 3 C-10 2.67 -10 2.34 -10 2 C-9.04287109 1.90912109 -9.04287109 1.90912109 -8.06640625 1.81640625 C-6.82697266 1.69072266 -6.82697266 1.69072266 -5.5625 1.5625 C-4.73878906 1.48128906 -3.91507813 1.40007812 -3.06640625 1.31640625 C-1.01337975 1.21069185 -1.01337975 1.21069185 0 0 Z " fill="#301605" transform="translate(528,1044)"/>
<path d="M0 0 C2.5 1.625 2.5 1.625 5 4 C5.3125 7.25 5.3125 7.25 5 10 C2.17940253 8.58970126 2.01898286 6.92108419 1 4 C0.64141484 2.67323492 0.2981424 1.34164079 0 0 Z " fill="#D9631A" transform="translate(797,978)"/>
<path d="M0 0 C1.65 0 3.3 0 5 0 C4.34 0.66 3.68 1.32 3 2 C2.30251417 3.31747324 1.63040043 4.64914193 1 6 C0.34 5.34 -0.32 4.68 -1 4 C-0.625 1.875 -0.625 1.875 0 0 Z " fill="#1A0B03" transform="translate(552,961)"/>
<path d="M0 0 C0.66 0.66 1.32 1.32 2 2 C-2.455 3.485 -2.455 3.485 -7 5 C-7.33 4.34 -7.66 3.68 -8 3 C-5.36 2.01 -2.72 1.02 0 0 Z " fill="#AB4E14" transform="translate(493,916)"/>
<path d="M0 0 C0.99 0.33 1.98 0.66 3 1 C1.35 3.64 -0.3 6.28 -2 9 C-3 6 -3 6 -1.5625 2.8125 C-1.046875 1.884375 -0.53125 0.95625 0 0 Z " fill="#4A2208" transform="translate(544,955)"/>
</svg>
